<mxfile host="app.diagrams.net" modified="2023-06-05T08:20:32.110Z" agent="Mozilla/5.0 (Windows NT 10.0; Win64; x64) AppleWebKit/537.36 (KHTML, like Gecko) Chrome/113.0.0.0 Safari/537.36" etag="qz7jiUv2oRVsj276zG2e" version="21.1.8" type="github">
  <diagram name="第 1 页" id="ne3iBb0nPlTjrxQR7bVG">
    <mxGraphModel dx="2514" dy="889" grid="1" gridSize="10" guides="1" tooltips="1" connect="1" arrows="1" fold="1" page="1" pageScale="1" pageWidth="827" pageHeight="1169" math="0" shadow="0">
      <root>
        <mxCell id="0" />
        <mxCell id="1" parent="0" />
        <mxCell id="iH12QLXyvVw_V8KLyItS-1" value="" style="rounded=0;whiteSpace=wrap;html=1;rotation=0;fillColor=#fced6d;strokeWidth=3;" vertex="1" parent="1">
          <mxGeometry x="-290" y="160" width="20" height="310" as="geometry" />
        </mxCell>
        <mxCell id="iH12QLXyvVw_V8KLyItS-2" value="" style="rounded=0;whiteSpace=wrap;html=1;rotation=0;strokeWidth=3;fillColor=#fced6d;" vertex="1" parent="1">
          <mxGeometry x="-159" y="160" width="20" height="120" as="geometry" />
        </mxCell>
        <mxCell id="iH12QLXyvVw_V8KLyItS-3" value="" style="rounded=0;whiteSpace=wrap;html=1;rotation=0;strokeWidth=3;fillColor=#fced6d;" vertex="1" parent="1">
          <mxGeometry x="-110" y="160" width="20" height="60" as="geometry" />
        </mxCell>
        <mxCell id="iH12QLXyvVw_V8KLyItS-4" value="" style="rounded=0;whiteSpace=wrap;html=1;rotation=0;strokeWidth=3;fillColor=#abb9c4;" vertex="1" parent="1">
          <mxGeometry x="210" y="160" width="20" height="330" as="geometry" />
        </mxCell>
        <mxCell id="iH12QLXyvVw_V8KLyItS-5" value="" style="rounded=0;whiteSpace=wrap;html=1;rotation=0;strokeWidth=3;fillColor=#abb9c4;" vertex="1" parent="1">
          <mxGeometry x="69" y="370" width="20" height="120" as="geometry" />
        </mxCell>
        <mxCell id="iH12QLXyvVw_V8KLyItS-6" value="" style="rounded=0;whiteSpace=wrap;html=1;rotation=0;strokeWidth=3;fillColor=#9FBFE5;" vertex="1" parent="1">
          <mxGeometry x="20" y="430" width="20" height="60" as="geometry" />
        </mxCell>
        <mxCell id="iH12QLXyvVw_V8KLyItS-49" value="" style="rounded=0;whiteSpace=wrap;html=1;rotation=0;strokeWidth=3;fillColor=#fced6d;" vertex="1" parent="1">
          <mxGeometry x="-239" y="160" width="20" height="190" as="geometry" />
        </mxCell>
        <mxCell id="iH12QLXyvVw_V8KLyItS-50" value="" style="rounded=0;whiteSpace=wrap;html=1;rotation=0;strokeWidth=3;fillColor=#abb9c4;" vertex="1" parent="1">
          <mxGeometry x="160" y="300" width="20" height="190" as="geometry" />
        </mxCell>
        <mxCell id="iH12QLXyvVw_V8KLyItS-55" value="" style="endArrow=classic;html=1;rounded=0;exitX=1;exitY=0.75;exitDx=0;exitDy=0;entryX=0;entryY=0.25;entryDx=0;entryDy=0;" edge="1" parent="1" source="iH12QLXyvVw_V8KLyItS-3" target="iH12QLXyvVw_V8KLyItS-6">
          <mxGeometry width="50" height="50" relative="1" as="geometry">
            <mxPoint x="-20" y="425" as="sourcePoint" />
            <mxPoint x="30" y="375" as="targetPoint" />
          </mxGeometry>
        </mxCell>
        <mxCell id="iH12QLXyvVw_V8KLyItS-57" value="" style="endArrow=classic;html=1;rounded=0;exitX=1;exitY=0.75;exitDx=0;exitDy=0;entryX=0;entryY=0.25;entryDx=0;entryDy=0;" edge="1" parent="1" source="iH12QLXyvVw_V8KLyItS-49" target="iH12QLXyvVw_V8KLyItS-50">
          <mxGeometry width="50" height="50" relative="1" as="geometry">
            <mxPoint x="60" y="165" as="sourcePoint" />
            <mxPoint x="120" y="345" as="targetPoint" />
          </mxGeometry>
        </mxCell>
        <mxCell id="iH12QLXyvVw_V8KLyItS-58" value="" style="endArrow=classic;html=1;rounded=0;exitX=1;exitY=0.75;exitDx=0;exitDy=0;entryX=0;entryY=0.25;entryDx=0;entryDy=0;" edge="1" parent="1" source="iH12QLXyvVw_V8KLyItS-1" target="iH12QLXyvVw_V8KLyItS-4">
          <mxGeometry width="50" height="50" relative="1" as="geometry">
            <mxPoint x="30" y="155" as="sourcePoint" />
            <mxPoint x="80" y="105" as="targetPoint" />
          </mxGeometry>
        </mxCell>
        <mxCell id="iH12QLXyvVw_V8KLyItS-63" value="" style="endArrow=classic;html=1;rounded=0;exitX=1;exitY=0.75;exitDx=0;exitDy=0;entryX=0;entryY=0.25;entryDx=0;entryDy=0;" edge="1" parent="1" source="iH12QLXyvVw_V8KLyItS-2" target="iH12QLXyvVw_V8KLyItS-5">
          <mxGeometry width="50" height="50" relative="1" as="geometry">
            <mxPoint x="90" y="175" as="sourcePoint" />
            <mxPoint x="140" y="125" as="targetPoint" />
          </mxGeometry>
        </mxCell>
        <mxCell id="iH12QLXyvVw_V8KLyItS-23" value="FRE" style="ellipse;whiteSpace=wrap;html=1;aspect=fixed;rotation=0;movable=1;resizable=1;rotatable=1;deletable=1;editable=1;locked=0;connectable=1;fillColor=#f8f4e9;strokeWidth=2;fontStyle=1;fontSize=15;" vertex="1" parent="1">
          <mxGeometry x="-70" y="290" width="55" height="55" as="geometry" />
        </mxCell>
        <mxCell id="iH12QLXyvVw_V8KLyItS-66" value="" style="html=1;shadow=0;dashed=0;align=center;verticalAlign=middle;shape=mxgraph.arrows2.uTurnArrow;dy=5.87;arrowHead=23.37;dx2=25;flipH=1;rotation=-135;fillColor=#dfe0da;strokeWidth=2;" vertex="1" parent="1">
          <mxGeometry x="-110.85" y="209.65" width="50" height="140" as="geometry" />
        </mxCell>
        <mxCell id="iH12QLXyvVw_V8KLyItS-68" value="" style="html=1;shadow=0;dashed=0;align=center;verticalAlign=middle;shape=mxgraph.arrows2.uTurnArrow;dy=5.62;arrowHead=26.79;dx2=25;flipH=1;rotation=45;fillColor=#dfe0da;strokeWidth=2;" vertex="1" parent="1">
          <mxGeometry x="-20" y="290" width="49" height="140" as="geometry" />
        </mxCell>
        <mxCell id="iH12QLXyvVw_V8KLyItS-70" value="&lt;b&gt;&lt;font style=&quot;font-size: 29px;&quot;&gt;...&lt;/font&gt;&lt;/b&gt;" style="rounded=0;whiteSpace=wrap;html=1;strokeColor=none;" vertex="1" parent="1">
          <mxGeometry x="-200" y="200" width="30" height="20" as="geometry" />
        </mxCell>
        <mxCell id="iH12QLXyvVw_V8KLyItS-71" value="&lt;b&gt;&lt;font style=&quot;font-size: 29px;&quot;&gt;...&lt;/font&gt;&lt;/b&gt;" style="rounded=0;whiteSpace=wrap;html=1;strokeColor=none;" vertex="1" parent="1">
          <mxGeometry x="93.5" y="420" width="59" height="20" as="geometry" />
        </mxCell>
        <mxCell id="iH12QLXyvVw_V8KLyItS-74" value="" style="rounded=0;whiteSpace=wrap;html=1;rotation=0;strokeWidth=3;fillColor=#9FBFE5;" vertex="1" parent="1">
          <mxGeometry x="210" y="160" width="20" height="330" as="geometry" />
        </mxCell>
        <mxCell id="iH12QLXyvVw_V8KLyItS-75" value="" style="rounded=0;whiteSpace=wrap;html=1;rotation=0;strokeWidth=3;fillColor=#9FBFE5;" vertex="1" parent="1">
          <mxGeometry x="160" y="300" width="20" height="190" as="geometry" />
        </mxCell>
        <mxCell id="iH12QLXyvVw_V8KLyItS-76" value="" style="rounded=0;whiteSpace=wrap;html=1;rotation=0;strokeWidth=3;fillColor=#9FBFE5;" vertex="1" parent="1">
          <mxGeometry x="69" y="370" width="20" height="120" as="geometry" />
        </mxCell>
      </root>
    </mxGraphModel>
  </diagram>
</mxfile>
